<mxfile host="65bd71144e">
    <diagram id="vbmH2Dk9VHVytlshsTES" name="Page-1">
        <mxGraphModel dx="3701" dy="1777" grid="1" gridSize="10" guides="1" tooltips="1" connect="1" arrows="1" fold="1" page="1" pageScale="1" pageWidth="827" pageHeight="1169" math="0" shadow="0">
            <root>
                <mxCell id="0"/>
                <mxCell id="1" parent="0"/>
                <mxCell id="3" value="arquitecture" style="swimlane;" vertex="1" parent="1">
                    <mxGeometry x="-810" y="14" width="1560" height="1140" as="geometry"/>
                </mxCell>
                <mxCell id="2" value="" style="shape=datastore;whiteSpace=wrap;html=1;" vertex="1" parent="3">
                    <mxGeometry x="1410" y="80" width="60" height="60" as="geometry"/>
                </mxCell>
            </root>
        </mxGraphModel>
    </diagram>
</mxfile>